<svg xmlns="http://www.w3.org/2000/svg" width="584" height="476" viewBox="0 0 584 476">
<style>
.str{stroke:#555;stroke-width:1}
.frt{stroke:#555;stroke-width:1}
.nut{stroke:#222;stroke-width:4}
.dot{fill:#4A90D9}
.dot.root{fill:#2E6AB0}
.open{fill:none;stroke:#555;stroke-width:1.5}
.mute{stroke:#555;stroke-width:2;stroke-linecap:round}
.lbl{font-family:Arial,Helvetica,sans-serif;font-size:9px;fill:#fff;text-anchor:middle;pointer-events:none}
.flbl{font-family:Arial,Helvetica,sans-serif;font-size:10px;fill:#666}
.title{font-family:Arial,Helvetica,sans-serif;font-size:14px;font-weight:bold;fill:#333;text-anchor:middle}
</style>
<g transform="translate(10,10)">


<rect width="132" height="224" fill="#F5F5F5" rx="4"/>
<text x="66" y="30" class="title">I - GM</text>
<line x1="15" y1="68" x2="117" y2="68" class="nut"/>
<line x1="16" y1="68" x2="116" y2="68" class="frt"/>
<line x1="16" y1="96" x2="116" y2="96" class="frt"/>
<line x1="16" y1="124" x2="116" y2="124" class="frt"/>
<line x1="16" y1="152" x2="116" y2="152" class="frt"/>
<line x1="16" y1="180" x2="116" y2="180" class="frt"/>
<line x1="16" y1="208" x2="116" y2="208" class="frt"/>
<line x1="16" y1="68" x2="16" y2="208" class="str"/>
<line x1="36" y1="68" x2="36" y2="208" class="str"/>
<line x1="56" y1="68" x2="56" y2="208" class="str"/>
<line x1="76" y1="68" x2="76" y2="208" class="str"/>
<line x1="96" y1="68" x2="96" y2="208" class="str"/>
<line x1="116" y1="68" x2="116" y2="208" class="str"/>
<text x="116" y="50" class="flbl" text-anchor="middle">E4</text>
<text x="96" y="50" class="flbl" text-anchor="middle">B3</text>
<text x="76" y="50" class="flbl" text-anchor="middle">G3</text>
<text x="56" y="50" class="flbl" text-anchor="middle">D3</text>
<text x="36" y="50" class="flbl" text-anchor="middle">A2</text>
<text x="16" y="50" class="flbl" text-anchor="middle">E2</text>
<circle cx="116" cy="138" r="7" class="dot"/>
<text x="116" y="141" class="lbl">G</text>
<circle cx="96" cy="60" r="4" class="open"/>
<circle cx="76" cy="60" r="4" class="open"/>
<circle cx="56" cy="60" r="4" class="open"/>
<circle cx="36" cy="110" r="7" class="dot"/>
<text x="36" y="113" class="lbl">B</text>
<circle cx="16" cy="138" r="7" class="dot"/>
<text x="16" y="141" class="lbl">G</text>
</g>
<g transform="translate(154,10)">


<rect width="132" height="224" fill="#F5F5F5" rx="4"/>
<text x="66" y="30" class="title">II - Am</text>
<line x1="15" y1="68" x2="117" y2="68" class="nut"/>
<line x1="16" y1="68" x2="116" y2="68" class="frt"/>
<line x1="16" y1="96" x2="116" y2="96" class="frt"/>
<line x1="16" y1="124" x2="116" y2="124" class="frt"/>
<line x1="16" y1="152" x2="116" y2="152" class="frt"/>
<line x1="16" y1="180" x2="116" y2="180" class="frt"/>
<line x1="16" y1="208" x2="116" y2="208" class="frt"/>
<line x1="16" y1="68" x2="16" y2="208" class="str"/>
<line x1="36" y1="68" x2="36" y2="208" class="str"/>
<line x1="56" y1="68" x2="56" y2="208" class="str"/>
<line x1="76" y1="68" x2="76" y2="208" class="str"/>
<line x1="96" y1="68" x2="96" y2="208" class="str"/>
<line x1="116" y1="68" x2="116" y2="208" class="str"/>
<text x="116" y="50" class="flbl" text-anchor="middle">E4</text>
<text x="96" y="50" class="flbl" text-anchor="middle">B3</text>
<text x="76" y="50" class="flbl" text-anchor="middle">G3</text>
<text x="56" y="50" class="flbl" text-anchor="middle">D3</text>
<text x="36" y="50" class="flbl" text-anchor="middle">A2</text>
<text x="16" y="50" class="flbl" text-anchor="middle">E2</text>
<circle cx="116" cy="60" r="4" class="open"/>
<circle cx="96" cy="82" r="7" class="dot"/>
<text x="96" y="85" class="lbl">C</text>
<circle cx="76" cy="110" r="7" class="dot"/>
<text x="76" y="113" class="lbl">A</text>
<circle cx="56" cy="110" r="7" class="dot"/>
<text x="56" y="113" class="lbl">E</text>
<circle cx="36" cy="60" r="4" class="open"/>
<line x1="12" y1="56" x2="20" y2="64" class="mute"/>
<line x1="20" y1="56" x2="12" y2="64" class="mute"/>
</g>
<g transform="translate(298,10)">


<rect width="152" height="224" fill="#F5F5F5" rx="4"/>
<text x="76" y="30" class="title">III - Bm</text>
<text x="30" y="86" class="flbl" text-anchor="end">2</text>
<line x1="36" y1="68" x2="136" y2="68" class="frt"/>
<line x1="36" y1="96" x2="136" y2="96" class="frt"/>
<line x1="36" y1="124" x2="136" y2="124" class="frt"/>
<line x1="36" y1="152" x2="136" y2="152" class="frt"/>
<line x1="36" y1="180" x2="136" y2="180" class="frt"/>
<line x1="36" y1="208" x2="136" y2="208" class="frt"/>
<line x1="36" y1="68" x2="36" y2="208" class="str"/>
<line x1="56" y1="68" x2="56" y2="208" class="str"/>
<line x1="76" y1="68" x2="76" y2="208" class="str"/>
<line x1="96" y1="68" x2="96" y2="208" class="str"/>
<line x1="116" y1="68" x2="116" y2="208" class="str"/>
<line x1="136" y1="68" x2="136" y2="208" class="str"/>
<line x1="56" y1="82" x2="136" y2="82" stroke="#4A90D9" stroke-width="14" stroke-linecap="round" opacity="0.4"/>
<text x="136" y="50" class="flbl" text-anchor="middle">E4</text>
<text x="116" y="50" class="flbl" text-anchor="middle">B3</text>
<text x="96" y="50" class="flbl" text-anchor="middle">G3</text>
<text x="76" y="50" class="flbl" text-anchor="middle">D3</text>
<text x="56" y="50" class="flbl" text-anchor="middle">A2</text>
<text x="36" y="50" class="flbl" text-anchor="middle">E2</text>
<text x="136" y="85" class="lbl">F#</text>
<circle cx="116" cy="110" r="7" class="dot"/>
<text x="116" y="113" class="lbl">D</text>
<circle cx="96" cy="138" r="7" class="dot"/>
<text x="96" y="141" class="lbl">B</text>
<circle cx="76" cy="138" r="7" class="dot"/>
<text x="76" y="141" class="lbl">F#</text>
<text x="56" y="85" class="lbl">B</text>
<line x1="32" y1="56" x2="40" y2="64" class="mute"/>
<line x1="40" y1="56" x2="32" y2="64" class="mute"/>
</g>
<g transform="translate(442,10)">


<rect width="132" height="224" fill="#F5F5F5" rx="4"/>
<text x="66" y="30" class="title">IV - CM</text>
<line x1="15" y1="68" x2="117" y2="68" class="nut"/>
<line x1="16" y1="68" x2="116" y2="68" class="frt"/>
<line x1="16" y1="96" x2="116" y2="96" class="frt"/>
<line x1="16" y1="124" x2="116" y2="124" class="frt"/>
<line x1="16" y1="152" x2="116" y2="152" class="frt"/>
<line x1="16" y1="180" x2="116" y2="180" class="frt"/>
<line x1="16" y1="208" x2="116" y2="208" class="frt"/>
<line x1="16" y1="68" x2="16" y2="208" class="str"/>
<line x1="36" y1="68" x2="36" y2="208" class="str"/>
<line x1="56" y1="68" x2="56" y2="208" class="str"/>
<line x1="76" y1="68" x2="76" y2="208" class="str"/>
<line x1="96" y1="68" x2="96" y2="208" class="str"/>
<line x1="116" y1="68" x2="116" y2="208" class="str"/>
<text x="116" y="50" class="flbl" text-anchor="middle">E4</text>
<text x="96" y="50" class="flbl" text-anchor="middle">B3</text>
<text x="76" y="50" class="flbl" text-anchor="middle">G3</text>
<text x="56" y="50" class="flbl" text-anchor="middle">D3</text>
<text x="36" y="50" class="flbl" text-anchor="middle">A2</text>
<text x="16" y="50" class="flbl" text-anchor="middle">E2</text>
<circle cx="116" cy="60" r="4" class="open"/>
<circle cx="96" cy="82" r="7" class="dot"/>
<text x="96" y="85" class="lbl">C</text>
<circle cx="76" cy="60" r="4" class="open"/>
<circle cx="56" cy="110" r="7" class="dot"/>
<text x="56" y="113" class="lbl">E</text>
<circle cx="36" cy="138" r="7" class="dot"/>
<text x="36" y="141" class="lbl">C</text>
<line x1="12" y1="56" x2="20" y2="64" class="mute"/>
<line x1="20" y1="56" x2="12" y2="64" class="mute"/>
</g>
<g transform="translate(10,242)">


<rect width="132" height="224" fill="#F5F5F5" rx="4"/>
<text x="66" y="30" class="title">V - DM</text>
<line x1="15" y1="68" x2="117" y2="68" class="nut"/>
<line x1="16" y1="68" x2="116" y2="68" class="frt"/>
<line x1="16" y1="96" x2="116" y2="96" class="frt"/>
<line x1="16" y1="124" x2="116" y2="124" class="frt"/>
<line x1="16" y1="152" x2="116" y2="152" class="frt"/>
<line x1="16" y1="180" x2="116" y2="180" class="frt"/>
<line x1="16" y1="208" x2="116" y2="208" class="frt"/>
<line x1="16" y1="68" x2="16" y2="208" class="str"/>
<line x1="36" y1="68" x2="36" y2="208" class="str"/>
<line x1="56" y1="68" x2="56" y2="208" class="str"/>
<line x1="76" y1="68" x2="76" y2="208" class="str"/>
<line x1="96" y1="68" x2="96" y2="208" class="str"/>
<line x1="116" y1="68" x2="116" y2="208" class="str"/>
<line x1="76" y1="110" x2="116" y2="110" stroke="#4A90D9" stroke-width="14" stroke-linecap="round" opacity="0.4"/>
<text x="116" y="50" class="flbl" text-anchor="middle">E4</text>
<text x="96" y="50" class="flbl" text-anchor="middle">B3</text>
<text x="76" y="50" class="flbl" text-anchor="middle">G3</text>
<text x="56" y="50" class="flbl" text-anchor="middle">D3</text>
<text x="36" y="50" class="flbl" text-anchor="middle">A2</text>
<text x="16" y="50" class="flbl" text-anchor="middle">E2</text>
<text x="116" y="113" class="lbl">F#</text>
<circle cx="96" cy="138" r="7" class="dot"/>
<text x="96" y="141" class="lbl">D</text>
<text x="76" y="113" class="lbl">A</text>
<circle cx="56" cy="60" r="4" class="open"/>
<line x1="32" y1="56" x2="40" y2="64" class="mute"/>
<line x1="40" y1="56" x2="32" y2="64" class="mute"/>
<line x1="12" y1="56" x2="20" y2="64" class="mute"/>
<line x1="20" y1="56" x2="12" y2="64" class="mute"/>
</g>
<g transform="translate(154,242)">


<rect width="132" height="224" fill="#F5F5F5" rx="4"/>
<text x="66" y="30" class="title">VI - Em</text>
<line x1="15" y1="68" x2="117" y2="68" class="nut"/>
<line x1="16" y1="68" x2="116" y2="68" class="frt"/>
<line x1="16" y1="96" x2="116" y2="96" class="frt"/>
<line x1="16" y1="124" x2="116" y2="124" class="frt"/>
<line x1="16" y1="152" x2="116" y2="152" class="frt"/>
<line x1="16" y1="180" x2="116" y2="180" class="frt"/>
<line x1="16" y1="208" x2="116" y2="208" class="frt"/>
<line x1="16" y1="68" x2="16" y2="208" class="str"/>
<line x1="36" y1="68" x2="36" y2="208" class="str"/>
<line x1="56" y1="68" x2="56" y2="208" class="str"/>
<line x1="76" y1="68" x2="76" y2="208" class="str"/>
<line x1="96" y1="68" x2="96" y2="208" class="str"/>
<line x1="116" y1="68" x2="116" y2="208" class="str"/>
<line x1="36" y1="110" x2="56" y2="110" stroke="#4A90D9" stroke-width="14" stroke-linecap="round" opacity="0.4"/>
<text x="116" y="50" class="flbl" text-anchor="middle">E4</text>
<text x="96" y="50" class="flbl" text-anchor="middle">B3</text>
<text x="76" y="50" class="flbl" text-anchor="middle">G3</text>
<text x="56" y="50" class="flbl" text-anchor="middle">D3</text>
<text x="36" y="50" class="flbl" text-anchor="middle">A2</text>
<text x="16" y="50" class="flbl" text-anchor="middle">E2</text>
<circle cx="116" cy="60" r="4" class="open"/>
<circle cx="96" cy="60" r="4" class="open"/>
<circle cx="76" cy="60" r="4" class="open"/>
<text x="56" y="113" class="lbl">E</text>
<text x="36" y="113" class="lbl">B</text>
<circle cx="16" cy="60" r="4" class="open"/>
</g>
<g transform="translate(298,242)">


<rect width="152" height="224" fill="#F5F5F5" rx="4"/>
<text x="76" y="30" class="title">VII - F#dim</text>
<text x="30" y="86" class="flbl" text-anchor="end">2</text>
<line x1="36" y1="68" x2="136" y2="68" class="frt"/>
<line x1="36" y1="96" x2="136" y2="96" class="frt"/>
<line x1="36" y1="124" x2="136" y2="124" class="frt"/>
<line x1="36" y1="152" x2="136" y2="152" class="frt"/>
<line x1="36" y1="180" x2="136" y2="180" class="frt"/>
<line x1="36" y1="208" x2="136" y2="208" class="frt"/>
<line x1="36" y1="68" x2="36" y2="208" class="str"/>
<line x1="56" y1="68" x2="56" y2="208" class="str"/>
<line x1="76" y1="68" x2="76" y2="208" class="str"/>
<line x1="96" y1="68" x2="96" y2="208" class="str"/>
<line x1="116" y1="68" x2="116" y2="208" class="str"/>
<line x1="136" y1="68" x2="136" y2="208" class="str"/>
<line x1="36" y1="82" x2="96" y2="82" stroke="#4A90D9" stroke-width="14" stroke-linecap="round" opacity="0.4"/>
<text x="136" y="50" class="flbl" text-anchor="middle">E4</text>
<text x="116" y="50" class="flbl" text-anchor="middle">B3</text>
<text x="96" y="50" class="flbl" text-anchor="middle">G3</text>
<text x="76" y="50" class="flbl" text-anchor="middle">D3</text>
<text x="56" y="50" class="flbl" text-anchor="middle">A2</text>
<text x="36" y="50" class="flbl" text-anchor="middle">E2</text>
<line x1="132" y1="56" x2="140" y2="64" class="mute"/>
<line x1="140" y1="56" x2="132" y2="64" class="mute"/>
<line x1="112" y1="56" x2="120" y2="64" class="mute"/>
<line x1="120" y1="56" x2="112" y2="64" class="mute"/>
<text x="96" y="85" class="lbl">A</text>
<circle cx="76" cy="138" r="7" class="dot"/>
<text x="76" y="141" class="lbl">F#</text>
<circle cx="56" cy="110" r="7" class="dot"/>
<text x="56" y="113" class="lbl">C</text>
<text x="36" y="85" class="lbl">F#</text>
</g>
</svg>
