<svg xmlns="http://www.w3.org/2000/svg" width="365" height="322" viewBox="0 0 365 322">
<style>
.w{width:23px;height:120px;fill:#fff;stroke:#333;stroke-width:1;ry:2}
.b{width:14px;height:78px;fill:#111;stroke:#000;stroke-width:1;ry:2}
.t{font-family:Arial,Helvetica,sans-serif;font-weight:bold;fill:#fff;text-anchor:middle;pointer-events:none}
.tw{font-size:9px}
.tb{font-size:7px}
.title{font-family:Arial,Helvetica,sans-serif;font-size:12px;font-weight:bold;fill:#333;text-anchor:middle}
.band{font-family:Arial,Helvetica,sans-serif;font-size:9px;font-weight:bold;fill:#fff;text-anchor:middle;pointer-events:none}
.d0.w{fill:#C4453C}
.d0.b{fill:#A6271E}
.d1.w{fill:#4A6FA5}
.d1.b{fill:#2C5187}
</style>
<g transform="translate(10,10)">
<rect width="345" height="148" fill="#F0EDE8" rx="3"/>
<text x="172" y="17" class="title">V (GM)</text>
<g transform="translate(0,28)">
<rect id="p0-key-48" class="w" x="0" y="0"/>
<rect id="p0-key-50" class="w" x="23" y="0"/>
<rect id="p0-key-52" class="w" x="46" y="0"/>
<rect id="p0-key-53" class="w" x="69" y="0"/>
<rect id="p0-key-55" class="w" x="92" y="0"/>
<rect id="p0-key-57" class="w" x="115" y="0"/>
<rect id="p0-key-59" class="w" x="138" y="0"/>
<rect id="p0-key-60" class="w" x="161" y="0"/>
<rect id="p0-key-62" class="w" x="184" y="0"/>
<rect id="p0-key-64" class="w" x="207" y="0"/>
<rect id="p0-key-65" class="w" x="230" y="0"/>
<rect id="p0-key-67" class="w d0" x="253" y="0"/>
<text x="264" y="112" class="t tw">G4</text>
<rect id="p0-key-69" class="w" x="276" y="0"/>
<rect id="p0-key-71" class="w d0" x="299" y="0"/>
<text x="310" y="112" class="t tw">B4</text>
<rect id="p0-key-72" class="w" x="322" y="0"/>
<rect id="p0-key-49" class="b" x="16" y="0"/>
<rect id="p0-key-51" class="b" x="39" y="0"/>
<rect id="p0-key-54" class="b" x="85" y="0"/>
<rect id="p0-key-56" class="b" x="108" y="0"/>
<rect id="p0-key-58" class="b" x="131" y="0"/>
<rect id="p0-key-61" class="b" x="177" y="0"/>
<rect id="p0-key-63" class="b" x="200" y="0"/>
<rect id="p0-key-66" class="b" x="246" y="0"/>
<rect id="p0-key-68" class="b" x="269" y="0"/>
<rect id="p0-key-70" class="b" x="292" y="0"/>
</g>
</g>
<g transform="translate(10,164)">
<rect width="345" height="148" fill="#F0EDE8" rx="3"/>
<text x="172" y="17" class="title">I (CM)</text>
<g transform="translate(0,28)">
<rect id="p1-key-48" class="w" x="0" y="0"/>
<rect id="p1-key-50" class="w" x="23" y="0"/>
<rect id="p1-key-52" class="w" x="46" y="0"/>
<rect id="p1-key-53" class="w" x="69" y="0"/>
<rect id="p1-key-55" class="w" x="92" y="0"/>
<rect id="p1-key-57" class="w" x="115" y="0"/>
<rect id="p1-key-59" class="w" x="138" y="0"/>
<rect id="p1-key-60" class="w d1" x="161" y="0"/>
<text x="172" y="112" class="t tw">C4</text>
<rect id="p1-key-62" class="w" x="184" y="0"/>
<rect id="p1-key-64" class="w d1" x="207" y="0"/>
<text x="218" y="112" class="t tw">E4</text>
<rect id="p1-key-65" class="w" x="230" y="0"/>
<rect id="p1-key-67" class="w d1" x="253" y="0"/>
<text x="264" y="112" class="t tw">G4</text>
<rect id="p1-key-69" class="w" x="276" y="0"/>
<rect id="p1-key-71" class="w" x="299" y="0"/>
<rect id="p1-key-72" class="w" x="322" y="0"/>
<rect id="p1-key-49" class="b" x="16" y="0"/>
<rect id="p1-key-51" class="b" x="39" y="0"/>
<rect id="p1-key-54" class="b" x="85" y="0"/>
<rect id="p1-key-56" class="b" x="108" y="0"/>
<rect id="p1-key-58" class="b" x="131" y="0"/>
<rect id="p1-key-61" class="b" x="177" y="0"/>
<rect id="p1-key-63" class="b" x="200" y="0"/>
<rect id="p1-key-66" class="b" x="246" y="0"/>
<rect id="p1-key-68" class="b" x="269" y="0"/>
<rect id="p1-key-70" class="b" x="292" y="0"/>
</g>
</g>
</svg>
